<svg width="20" height="20" viewBox="0 0 20 20" fill="none" xmlns="http://www.w3.org/2000/svg">
<g clip-path="url(#clip0_1674_15296)">
<path fill-rule="evenodd" clip-rule="evenodd" d="M19.3595 11.2304C18.5918 11.3868 17.9978 11.5078 17.8416 12.0963L17.8408 12.1005C17.678 12.7096 18.3076 13.2612 18.8498 13.7364C18.9767 13.8476 19.0989 13.9547 19.205 14.0573L18.1166 15.9432C17.8896 15.8784 17.6768 15.8076 17.4773 15.7412C16.7297 15.4924 16.1686 15.3057 15.7457 15.7307C15.2948 16.1836 15.5627 16.9731 15.7957 17.6595C15.8499 17.8193 15.9023 17.9735 15.9432 18.1166L14.0573 19.205C13.8863 19.0282 13.7335 18.8559 13.5918 18.6961C13.0656 18.103 12.6922 17.682 12.1072 17.8383L12.1022 17.8399C11.492 18.0026 11.3296 18.8208 11.1889 19.5293C11.1559 19.6955 11.1241 19.8557 11.088 20H8.91121C8.85568 19.7777 8.8119 19.5628 8.77059 19.36C8.61414 18.592 8.49325 17.9985 7.9045 17.8416L7.8995 17.8408C7.29042 17.678 6.73878 18.3075 6.26366 18.8498C6.15242 18.9767 6.04536 19.0989 5.94275 19.205L4.05684 18.1166C4.12162 17.8896 4.19243 17.6768 4.25883 17.4773C4.50758 16.7297 4.69429 16.1686 4.26935 15.7457C3.81795 15.2956 3.02902 15.5628 2.34198 15.7955C2.18172 15.8498 2.02701 15.9022 1.88341 15.9432L0.795034 14.0573C0.971861 13.8863 1.14411 13.7335 1.30387 13.5918C1.89704 13.0656 2.31802 12.6922 2.16176 12.1072L2.16009 12.1022C1.99806 11.4919 1.17695 11.3289 0.46909 11.1885C0.303192 11.1556 0.143514 11.1239 0 11.088V8.91121C0.221408 8.8559 0.435775 8.81224 0.638198 8.77102C1.40568 8.61472 2.00148 8.49338 2.15842 7.9045L2.15926 7.8995C2.32184 7.291 1.69312 6.73984 1.15149 6.26503C1.02404 6.15329 0.9014 6.04578 0.795034 5.94275L1.88341 4.05767C2.11003 4.1224 2.32251 4.19314 2.52177 4.25947C3.26922 4.50832 3.83062 4.69523 4.25435 4.27018C4.70439 3.81878 4.43719 3.02985 4.2045 2.34281C4.15022 2.18255 4.09782 2.02784 4.05684 1.88425L5.94192 0.795034C6.11291 0.97186 6.2657 1.14411 6.40742 1.30387C6.93359 1.89704 7.30702 2.31802 7.892 2.16176L7.897 2.16009C8.50719 1.99742 8.66963 1.17924 8.81029 0.470735C8.84329 0.304491 8.8751 0.144284 8.91121 0H11.088C11.1437 0.222491 11.1876 0.437599 11.2291 0.640507C11.3862 1.4089 11.5074 2.00235 12.0955 2.15926L12.1005 2.16009C12.7096 2.32283 13.2612 1.6933 13.7363 1.15108C13.8476 1.02413 13.9546 0.901958 14.0573 0.795867L15.9432 1.88425C15.8784 2.11125 15.8076 2.32405 15.7412 2.52357C15.4924 3.27113 15.3057 3.83221 15.7307 4.25518C16.1821 4.70523 16.971 4.43803 17.658 4.20533C17.8183 4.15105 17.973 4.09865 18.1166 4.05767L19.205 5.94359C19.0285 6.11427 18.8565 6.26686 18.697 6.40841C18.1034 6.93518 17.6821 7.30906 17.8391 7.89367L17.8399 7.89867C18.002 8.50899 18.8231 8.67191 19.5309 8.81236C19.6968 8.84528 19.8565 8.87696 20 8.91288V11.0896C19.7776 11.1452 19.5625 11.1891 19.3595 11.2304ZM6.22011 7.62841L10.8695 9.63536C11.0132 9.6974 11.1704 9.58103 11.1529 9.42545L11.0247 8.28196C11.6089 8.63115 12 9.26982 12 9.99985H14.6667C14.6667 7.66042 12.9452 5.72305 10.7 5.38533L10.5843 4.35374C10.5667 4.19696 10.3854 4.11869 10.2593 4.21343L6.17847 7.27819C6.05329 7.3722 6.07638 7.56637 6.22011 7.62841ZM12.9925 13.6299L8.34305 15.6368C8.19932 15.6989 8.04219 15.5825 8.05963 15.4269L8.18589 14.3008C6.50969 13.5929 5.33333 11.9338 5.33333 9.99985H8C8 10.5166 8.19594 10.9875 8.51758 11.3424L8.62826 10.3552C8.64584 10.1984 8.82717 10.1202 8.95331 10.2149L13.0341 13.2797C13.1593 13.3737 13.1362 13.5678 12.9925 13.6299Z" fill="white"/>
</g>
<defs>
<clipPath id="clip0_1674_15296">
<rect width="20" height="20" fill="white"/>
</clipPath>
</defs>
</svg>
