<svg width="20" height="20" viewBox="0 0 20 20" fill="none" xmlns="http://www.w3.org/2000/svg">
<path fill-rule="evenodd" clip-rule="evenodd" d="M9.71848 10.1898L5.05614 10.1898V8.89823L9.71852 8.89823C10.0011 7.78413 10.9978 6.96094 12.184 6.96094C13.59 6.96094 14.7297 8.11745 14.7297 9.54408C14.7297 10.9707 13.59 12.1272 12.184 12.1272C10.9978 12.1272 10.0011 11.304 9.71848 10.1898ZM10.9113 9.56224C10.9208 10.2672 11.487 10.8357 12.184 10.8357C12.887 10.8357 13.4569 10.2574 13.4569 9.54408C13.4569 8.83077 12.887 8.25251 12.184 8.25251C11.487 8.25251 10.9208 8.82098 10.9113 9.52593V9.56224Z" fill="white"/>
<path fill-rule="evenodd" clip-rule="evenodd" d="M9.55809 13.6125L14.2206 13.6125V14.9041L9.55809 14.9041C9.27549 16.0182 8.27878 16.8415 7.09258 16.8415C5.68663 16.8415 4.54687 15.685 4.54688 14.2583C4.54688 12.8317 5.68663 11.6752 7.09258 11.6752C8.27878 11.6752 9.27549 12.4984 9.55809 13.6125ZM5.81973 14.2583C5.81973 13.545 6.38961 12.9668 7.09258 12.9668C7.79556 12.9668 8.36544 13.545 8.36544 14.2583C8.36544 14.9716 7.79556 15.5499 7.09258 15.5499C6.3896 15.5499 5.81973 14.9716 5.81973 14.2583Z" fill="white"/>
<path fill-rule="evenodd" clip-rule="evenodd" d="M3.6 18.4V1.6H12.3373V5.66274H16.4V18.4H3.6ZM13 0L18 5V20H2V0H13Z" fill="white"/>
</svg>
